<svg xmlns="http://www.w3.org/2000/svg" xmlns:xlink="http://www.w3.org/1999/xlink" width="500" zoomAndPan="magnify" viewBox="0 0 375 374.999991" height="500" preserveAspectRatio="xMidYMid meet" version="1.0"><defs><clipPath id="4ccc4ef297"><path d="M 1 151 L 135 151 L 135 241.359375 L 1 241.359375 Z M 1 151 " clip-rule="nonzero"/></clipPath></defs><path fill="#f69723" d="M 372.835938 147.929688 C 369.773438 143.390625 363.652344 144.28125 358.949219 143.984375 C 315.125 144.058594 271.300781 144.058594 227.480469 143.984375 C 222.773438 144.28125 218.742188 141.453125 215.90625 137.953125 C 212.546875 133.558594 206.5 134.453125 201.648438 134.378906 C 185.222656 134.824219 168.796875 133.710938 152.449219 134.976562 C 148.789062 142.125 147 150.015625 144.160156 157.535156 C 220.757812 157.6875 297.355469 157.6875 373.953125 157.535156 C 374.253906 154.335938 375 150.6875 372.835938 147.929688 Z M 372.835938 147.929688 " fill-opacity="1" fill-rule="nonzero"/><path fill="#f69723" d="M 343.71875 172.132812 C 301.835938 171.910156 259.953125 172.132812 218.070312 172.058594 C 212.621094 172.429688 208.441406 168.929688 205.230469 165.058594 C 203.066406 162.300781 199.257812 162.527344 196.046875 162.453125 C 178.207031 162.527344 160.363281 162.378906 142.519531 162.527344 C 139.757812 170.046875 136.996094 177.640625 134.53125 185.238281 C 171.859375 185.683594 209.1875 185.3125 246.589844 185.460938 C 281.304688 185.3125 315.945312 185.683594 350.660156 185.238281 C 353.796875 180.097656 350.066406 172.132812 343.71875 172.132812 Z M 343.71875 172.132812 " fill-opacity="1" fill-rule="nonzero"/><path fill="#f69723" d="M 310.945312 199.535156 C 275.929688 199.386719 240.84375 199.832031 205.828125 199.3125 C 198.585938 199.460938 196.496094 189.628906 189.179688 190.003906 C 170.367188 189.78125 151.554688 190.152344 132.8125 189.855469 C 130.125 197.523438 127.066406 205.117188 125.050781 213.011719 C 193.0625 212.9375 261.148438 213.234375 329.160156 212.863281 C 329.160156 209.4375 330.132812 205.417969 327.445312 202.660156 C 323.039062 198.492188 316.46875 199.683594 310.945312 199.535156 Z M 310.945312 199.535156 " fill-opacity="1" fill-rule="nonzero"/><path fill="#f69723" d="M 298.625 227.828125 C 265.777344 227.308594 233.003906 227.902344 200.15625 227.679688 C 195.003906 227.605469 189.851562 225.820312 186.789062 221.574219 C 182.984375 216.140625 175.742188 218.074219 170.140625 218 C 160.960938 217.554688 151.851562 217.703125 142.667969 218.074219 C 135.800781 218.449219 128.855469 216.734375 122.0625 218.671875 C 120.644531 226.191406 117.136719 233.117188 115.417969 240.5625 L 129.007812 240.5625 C 169.84375 240.5625 210.679688 240.636719 251.59375 240.5625 L 306.539062 240.5625 L 306.539062 239.074219 C 306.613281 237.0625 306.6875 234.976562 306.316406 232.96875 C 305.121094 229.914062 302.058594 227.53125 298.625 227.828125 Z M 298.625 227.828125 " fill-opacity="1" fill-rule="nonzero"/><g clip-path="url(#4ccc4ef297)"><path fill="#f69723" d="M 119.898438 195.214844 L 111.6875 195.214844 C 107.429688 195.140625 103.175781 195.066406 98.921875 195.214844 L 56.664062 195.214844 C 59.351562 190.449219 62.261719 185.832031 65.101562 181.140625 C 85.035156 181.140625 104.890625 181.214844 124.824219 181.066406 C 128.109375 171.910156 132.066406 163.046875 134.828125 153.738281 C 134.007812 150.539062 130.199219 151.730469 127.738281 151.429688 C 116.089844 151.804688 104.371094 150.910156 92.796875 151.878906 C 80.332031 157.910156 68.085938 164.460938 55.769531 170.792969 C 51.664062 172.355469 52.929688 177.714844 54.796875 180.621094 C 52.410156 185.757812 48.898438 190.226562 46.0625 195.066406 C 36.730469 196.851562 27.324219 198.566406 17.992188 200.503906 C 13.8125 201.246094 10.601562 204.523438 9.257812 208.394531 C 6.71875 215.171875 4.777344 222.097656 2.390625 228.871094 C 1.566406 231.703125 0 235.203125 2.015625 237.957031 C 4.703125 241.085938 9.183594 240.859375 12.914062 241.007812 C 42.03125 241.007812 71.222656 241.007812 100.339844 241.007812 C 101.980469 240.933594 104.371094 241.160156 104.816406 239.074219 C 109.96875 224.40625 114.972656 209.808594 119.898438 195.214844 Z M 119.898438 195.214844 " fill-opacity="1" fill-rule="nonzero"/></g></svg>